<?xml version="1.0" encoding="utf-8"?>
<svg xmlns="http://www.w3.org/2000/svg" viewBox="0 0 500 500" xmlns:bx="https://boxy-svg.com">
  <defs>
    <path d="M0.0542391267,82.7736137 C0.0542391267,82.7736137 -2.79670497,19.3216043 32.8400963,0.397320759 C32.8400963,0.397320759 49.9457609,-7.39503128 49.9457609,46.0382398 C49.9457609,46.0382398 52.796705,73.8680685 17.1599037,85 L0.0542391267,82.7736137 Z" id="path-1"/>
    <polygon id="path-3" points="29 32 44 4 54 30 31 44"/>
    <filter x="-6.0%" y="-3.7%" width="112.0%" height="107.5%" filterUnits="objectBoundingBox" id="filter-4">
      <feOffset dx="0" dy="0" in="SourceAlpha" result="shadowOffsetOuter1"/>
      <feGaussianBlur stdDeviation="0.5" in="shadowOffsetOuter1" result="shadowBlurOuter1"/>
      <feColorMatrix values="0 0 0 0 0   0 0 0 0 0   0 0 0 0 0  0 0 0 0.25 0" type="matrix" in="shadowBlurOuter1"/>
    </filter>
    <polygon id="path-5" points="31 44 55 29 51 66 23 64"/>
    <filter x="-4.7%" y="-4.1%" width="109.4%" height="108.1%" filterUnits="objectBoundingBox" id="filter-6">
      <feOffset dx="0" dy="0" in="SourceAlpha" result="shadowOffsetOuter1"/>
      <feGaussianBlur stdDeviation="0.5" in="shadowOffsetOuter1" result="shadowBlurOuter1"/>
      <feColorMatrix values="0 0 0 0 0   0 0 0 0 0   0 0 0 0 0  0 0 0 0.25 0" type="matrix" in="shadowBlurOuter1"/>
    </filter>
    <path d="M29,32 C29,32 36,42 32,54 C32,54 18,82 11,85 L3,85 C3,85 15,37 29,32 Z" id="path-8"/>
    <filter x="-5.0%" y="-2.8%" width="109.9%" height="105.7%" filterUnits="objectBoundingBox" id="filter-9">
      <feOffset dx="0" dy="0" in="SourceAlpha" result="shadowOffsetOuter1"/>
      <feGaussianBlur stdDeviation="0.5" in="shadowOffsetOuter1" result="shadowBlurOuter1"/>
      <feColorMatrix values="0 0 0 0 0   0 0 0 0 0   0 0 0 0 0  0 0 0 0.25 0" type="matrix" in="shadowBlurOuter1"/>
    </filter>
    <path d="M1.25,27.3434018 C1.25,27.3434018 21.5,33.125 29,30 C36.5,26.875 42.5,16.5737758 37.5,4.84340176 C23.75,-10 0,17.3434018 0,17.3434018 L1.25,27.3434018 Z" id="path-10"/>
    <polygon id="path-12" points="22.5 20 43.75 16.25 32.5 37.5 10 36.25 15 25"/>
    <filter x="-4.4%" y="-7.1%" width="108.9%" height="114.1%" filterUnits="objectBoundingBox" id="filter-13">
      <feOffset dx="0" dy="0" in="SourceAlpha" result="shadowOffsetOuter1"/>
      <feGaussianBlur stdDeviation="0.5" in="shadowOffsetOuter1" result="shadowBlurOuter1"/>
      <feColorMatrix values="0 0 0 0 0   0 0 0 0 0   0 0 0 0 0  0 0 0 0.25 0" type="matrix" in="shadowBlurOuter1"/>
    </filter>
    <path d="M8.75,6.25 C8.75,6.25 18.75,10 23.75,20 C23.75,20 23.75,30 13.75,33.75 L-3.75,28.75 L-3.75,13.75 L8.75,6.25 Z" id="path-15"/>
    <filter x="-5.5%" y="-5.5%" width="110.9%" height="110.9%" filterUnits="objectBoundingBox" id="filter-16">
      <feOffset dx="0" dy="0" in="SourceAlpha" result="shadowOffsetOuter1"/>
      <feGaussianBlur stdDeviation="0.5" in="shadowOffsetOuter1" result="shadowBlurOuter1"/>
      <feColorMatrix values="0 0 0 0 0   0 0 0 0 0   0 0 0 0 0  0 0 0 0.25 0" type="matrix" in="shadowBlurOuter1"/>
    </filter>
    <linearGradient gradientUnits="userSpaceOnUse" x1="8.389" y1="15" x2="8.389" y2="84" id="gradient-0" gradientTransform="matrix(0.960483, 0.278343, -0.426906, 1.473158, 29.177129, -45.354815)">
      <stop offset="0" style="stop-color: rgb(255, 132, 255);"/>
      <stop offset="1" style="stop-color: rgb(255, 255, 255);"/>
    </linearGradient>
    <linearGradient gradientUnits="userSpaceOnUse" x1="18.117" y1="32" x2="18.117" y2="85" id="gradient-1" gradientTransform="matrix(0.936961, 0.349437, -0.665269, 1.783804, 48.322509, -73.069986)">
      <stop offset="0" style="stop-color: rgb(90.98% 48.235% 86.275%)"/>
      <stop offset="1" style="stop-color: rgb(255, 255, 255);"/>
    </linearGradient>
    <linearGradient gradientUnits="userSpaceOnUse" x1="34.709" y1="59.623" x2="34.709" y2="94.706" id="gradient-2" gradientTransform="matrix(0.672316, 0.740265, -1.626811, 1.477485, 144.536882, -79.489511)">
      <stop offset="0" style="stop-color: rgb(255, 134, 218);"/>
      <stop offset="1" style="stop-color: rgb(255, 255, 255);"/>
    </linearGradient>
    <linearGradient gradientUnits="userSpaceOnUse" x1="10" y1="6.25" x2="10" y2="33.75" id="gradient-3" gradientTransform="matrix(0.135222, 0.990816, -0.947166, 0.129263, 33.045118, 7.062336)">
      <stop offset="0" style="stop-color: rgb(227, 142, 218);"/>
      <stop offset="1" style="stop-color: rgb(255, 255, 255);"/>
    </linearGradient>
    <bx:export>
      <bx:file format="svg" path="wing-right.svg"/>
    </bx:export>
  </defs>
  <title>wing-right</title>
  <desc>Created with Sketch.</desc>
  <g id="Page-1" stroke="none" stroke-width="1" fill="none" fill-rule="evenodd" opacity="0.95" transform="matrix(-1, 0, 0, 1, 413.971008, 210.794861)" style="">
    <g id="Artboard-3" transform="translate(-275.000000, -646.000000)">
      <g id="wing-right" transform="translate(275.000000, 638.000000)">
        <g id="wing-top-right" transform="translate(35.147955, 47.522324) rotate(15.000000) translate(-35.147955, -47.522324) translate(10.147955, 5.022324)">
          <mask id="mask-2" fill="white">
            <path d="M0.0542391267,82.7736137 C0.0542391267,82.7736137 -2.79670497,19.3216043 32.8400963,0.397320759 C32.8400963,0.397320759 49.9457609,-7.39503128 49.9457609,46.0382398 C49.9457609,46.0382398 52.796705,73.8680685 17.1599037,85 L0.0542391267,82.7736137 Z"/>
          </mask>
          <path d="M0.0542391267,82.7736137 C0.0542391267,82.7736137 -2.79670497,19.3216043 32.8400963,0.397320759 C32.8400963,0.397320759 49.9457609,-7.39503128 49.9457609,46.0382398 C49.9457609,46.0382398 52.796705,73.8680685 17.1599037,85 L0.0542391267,82.7736137 Z" id="Mask" style="fill: rgb(234, 150, 220);"/>
          <g id="Path" mask="url(#mask-2)">
            <polygon points="29 32 44 4 54 30 31 44" fill="black" fill-opacity="1" filter="url(#filter-4)"/>
            <polygon points="29 32 44 4 54 30 31 44" fill-rule="evenodd" style="fill: rgb(240, 178, 226);"/>
          </g>
          <g id="Path" mask="url(#mask-2)">
            <polygon points="31 44 55 29 51 66 23 64" fill="black" fill-opacity="1" filter="url(#filter-6)"/>
            <polygon points="31 44 55 29 51 66 23 64" fill-rule="evenodd" style="fill: rgb(225, 161, 222);"/>
          </g>
          <path d="M16,15 C16,15 20,37 16,49 C16,49 8.38888889,62 4,84 L-1,84 C-1,84 2,20 16,15 Z" id="Path-14" mask="url(#mask-2)" style="fill: url(&quot;#gradient-0&quot;);"/>
          <path d="M51,52 C51,52 53,55 49,67 C49,67 24,84 17,87 L11,85 C11,85 17.6111111,81 25,66 C28.3256946,59.2485898 38,51 51,52 Z" id="Path-14" mask="url(#mask-2)" style="fill: url(&quot;#gradient-2&quot;);"/>
          <g id="Path-14" mask="url(#mask-2)">
            <path d="M29,32 C29,32 36,42 32,54 C32,54 18,82 11,85 L3,85 C3,85 15,37 29,32 Z" fill="black" fill-opacity="1" filter="url(#filter-9)"/>
            <path d="M29,32 C29,32 36,42 32,54 C32,54 18,82 11,85 L3,85 C3,85 15,37 29,32 Z" fill-rule="evenodd" style="fill: url(&quot;#gradient-1&quot;);"/>
          </g>
        </g>
        <g id="wing-bottom-right" transform="translate(32.000000, 104.500000) rotate(35.000000) translate(-32.000000, -104.500000) translate(12.000000, 89.000000)">
          <mask id="mask-11" fill="white">
            <path d="M1.25,27.3434018 C1.25,27.3434018 21.5,33.125 29,30 C36.5,26.875 42.5,16.5737758 37.5,4.84340176 C23.75,-10 0,17.3434018 0,17.3434018 L1.25,27.3434018 Z"/>
          </mask>
          <path d="M1.25,27.3434018 C1.25,27.3434018 21.5,33.125 29,30 C36.5,26.875 42.5,16.5737758 37.5,4.84340176 C23.75,-10 0,17.3434018 0,17.3434018 L1.25,27.3434018 Z" id="Mask" style="fill: rgb(237, 173, 222);"/>
          <g id="Path-15" mask="url(#mask-11)">
            <polygon points="22.5 20 43.75 16.25 32.5 37.5 10 36.25 15 25" fill="black" fill-opacity="1" filter="url(#filter-13)"/>
            <polygon points="22.5 20 43.75 16.25 32.5 37.5 10 36.25 15 25" fill-rule="evenodd" style="fill: rgb(230, 143, 203);"/>
          </g>
          <g id="Path-16" mask="url(#mask-11)">
            <path d="M8.75,6.25 C8.75,6.25 18.75,10 23.75,20 C23.75,20 23.75,30 13.75,33.75 L-3.75,28.75 L-3.75,13.75 L8.75,6.25 Z" fill="black" fill-opacity="1" filter="url(#filter-16)"/>
            <path d="M8.75,6.25 C8.75,6.25 18.75,10 23.75,20 C23.75,20 23.75,30 13.75,33.75 L-3.75,28.75 L-3.75,13.75 L8.75,6.25 Z" fill-rule="evenodd" style="fill: url(&quot;#gradient-3&quot;);"/>
          </g>
        </g>
      </g>
    </g>
  </g>
</svg>